<svg xmlns="http://www.w3.org/2000/svg" viewBox="0 0 64 64"><defs><linearGradient id="g" x1="0" y1="0" x2="1" y2="1"><stop offset="0" stop-color="#35a0d4"/><stop offset="1" stop-color="#0d5c84"/></linearGradient></defs><path d="M29 3.7a6 6 0 0 1 6 0l19.7 11.4a6 6 0 0 1 3 5.2v23.4a6 6 0 0 1-3 5.2L35 60.3a6 6 0 0 1-6 0L9.3 48.9a6 6 0 0 1-3-5.2V20.3a6 6 0 0 1 3-5.2z" fill="url(#g)"/><path d="M43.5 21.5h-23v21h23V32.5H33" fill="none" stroke="#fff" stroke-width="6.2" stroke-linejoin="miter"/><path d="M23.6 31.5 30.5 24.6" stroke="#a9d6ef" stroke-width="2.6" stroke-linecap="round"/></svg>
